<?xml version="1.0" encoding="UTF-8" standalone="no"?>
<!-- Created with Inkscape (http://www.inkscape.org/) -->

<svg
   xmlns:dc="http://purl.org/dc/elements/1.1/"
   xmlns:cc="http://creativecommons.org/ns#"
   xmlns:rdf="http://www.w3.org/1999/02/22-rdf-syntax-ns#"
   xmlns:svg="http://www.w3.org/2000/svg"
   xmlns="http://www.w3.org/2000/svg"
   xmlns:sodipodi="http://sodipodi.sourceforge.net/DTD/sodipodi-0.dtd"
   xmlns:inkscape="http://www.inkscape.org/namespaces/inkscape"
   width="744.09448819"
   height="1052.3622047"
   id="svg4511"
   version="1.1"
   inkscape:version="0.48.3.1 r9886"
   sodipodi:docname="mojeNaloge.svg"
   inkscape:export-filename="C:\Users\Petra\Desktop\ACScrum\static\images\mojeNaloge.png"
   inkscape:export-xdpi="90"
   inkscape:export-ydpi="90">
  <defs
     id="defs4513" />
  <sodipodi:namedview
     id="base"
     pagecolor="#ffffff"
     bordercolor="#666666"
     borderopacity="1.0"
     inkscape:pageopacity="0.0"
     inkscape:pageshadow="2"
     inkscape:zoom="0.49497475"
     inkscape:cx="375"
     inkscape:cy="520"
     inkscape:document-units="px"
     inkscape:current-layer="layer1"
     showgrid="false"
     inkscape:window-width="1600"
     inkscape:window-height="838"
     inkscape:window-x="-8"
     inkscape:window-y="-8"
     inkscape:window-maximized="1" />
  <metadata
     id="metadata4516">
    <rdf:RDF>
      <cc:Work
         rdf:about="">
        <dc:format>image/svg+xml</dc:format>
        <dc:type
           rdf:resource="http://purl.org/dc/dcmitype/StillImage" />
        <dc:title />
      </cc:Work>
    </rdf:RDF>
  </metadata>
  <g
     inkscape:label="Layer 1"
     inkscape:groupmode="layer"
     id="layer1">
    <rect
       style="fill:#ffffff;fill-opacity:1;fill-rule:nonzero;stroke:#4d4d4d;stroke-width:15.91279697;stroke-linecap:square;stroke-linejoin:miter;stroke-miterlimit:4;stroke-opacity:1;stroke-dasharray:none"
       id="rect2985"
       width="725.95319"
       height="725.95319"
       x="9.7788858"
       y="11.474972"
       ry="53.211353"
       inkscape:export-xdpi="90"
       inkscape:export-ydpi="90"
       inkscape:export-filename="C:\Users\Petra\Desktop\ACScrum\static\icons\mojeNaloge.png" />
    <rect
       style="fill:#ffffff;fill-opacity:1;fill-rule:nonzero;stroke:#4d4d4d;stroke-width:15.74560642;stroke-linecap:square;stroke-linejoin:miter;stroke-miterlimit:4;stroke-opacity:1;stroke-dasharray:none"
       id="rect2989-7"
       width="444.83072"
       height="9.6682272"
       x="166.69429"
       y="421.63422"
       ry="4.8341136"
       inkscape:export-filename="C:\Users\Petra\Desktop\ACScrum\static\icons\mojeNaloge.png"
       inkscape:export-xdpi="90"
       inkscape:export-ydpi="90" />
    <rect
       style="fill:#ffffff;fill-opacity:1;fill-rule:nonzero;stroke:#4d4d4d;stroke-width:15.74560642;stroke-linecap:square;stroke-linejoin:miter;stroke-miterlimit:4;stroke-opacity:1;stroke-dasharray:none"
       id="rect2989-4"
       width="444.83072"
       height="9.6682272"
       x="153.61107"
       y="526.83112"
       ry="4.8341136"
       inkscape:export-filename="C:\Users\Petra\Desktop\ACScrum\static\icons\mojeNaloge.png"
       inkscape:export-xdpi="90"
       inkscape:export-ydpi="90" />
    <rect
       style="fill:#ffffff;fill-opacity:1;fill-rule:nonzero;stroke:#4d4d4d;stroke-width:15.74560642;stroke-linecap:square;stroke-linejoin:miter;stroke-miterlimit:4;stroke-opacity:1;stroke-dasharray:none"
       id="rect2989-0"
       width="444.83072"
       height="9.6682272"
       x="151.59084"
       y="614.63855"
       ry="4.8341136"
       inkscape:export-filename="C:\Users\Petra\Desktop\ACScrum\static\icons\mojeNaloge.png"
       inkscape:export-xdpi="90"
       inkscape:export-ydpi="90" />
    <rect
       style="fill:#4d4d4d;fill-opacity:1;stroke:#4d4d4d;stroke-width:14.76520824;stroke-linecap:square;stroke-linejoin:miter;stroke-miterlimit:4;stroke-opacity:1;stroke-dasharray:none"
       id="rect4555"
       width="415.89301"
       height="274.40295"
       x="180.14459"
       y="71.759323"
       ry="57.379028"
       inkscape:export-filename="C:\Users\Petra\Desktop\ACScrum\static\icons\mojeNaloge.png"
       inkscape:export-xdpi="90"
       inkscape:export-ydpi="90" />
    <path
       sodipodi:type="arc"
       style="fill:#ffffff;fill-opacity:1;stroke:#4d4d4d;stroke-width:8;stroke-linecap:square;stroke-linejoin:miter;stroke-miterlimit:4;stroke-opacity:1;stroke-dasharray:none"
       id="path4557"
       sodipodi:cx="391.42856"
       sodipodi:cy="408.07648"
       sodipodi:rx="45.714287"
       sodipodi:ry="44.285713"
       d="m 437.14285,408.07648 a 45.714287,44.285713 0 1 1 -91.42858,0 45.714287,44.285713 0 1 1 91.42858,0 z"
       inkscape:export-filename="C:\Users\Petra\Desktop\ACScrum\static\icons\mojeNaloge.png"
       inkscape:export-xdpi="90"
       inkscape:export-ydpi="90"
       transform="matrix(1.9436334,0,0,1.6919398,-369.55132,-500.844)" />
    <path
       sodipodi:type="star"
       style="fill:#ffffff;fill-opacity:1;stroke:#4d4d4d;stroke-width:8;stroke-linecap:square;stroke-linejoin:miter;stroke-miterlimit:4;stroke-opacity:1;stroke-dasharray:none"
       id="path4559"
       sodipodi:sides="3"
       sodipodi:cx="-294.28571"
       sodipodi:cy="418.07648"
       sodipodi:r1="52.443096"
       sodipodi:r2="24.989794"
       sodipodi:arg1="0.51246533"
       sodipodi:arg2="1.5596629"
       inkscape:flatsided="true"
       inkscape:rounded="-1.9116653e-015"
       inkscape:randomized="0"
       d="m -248.57954,443.79076 -90.82847,1.01128 44.53844,-79.16541 z"
       inkscape:transform-center-x="1.3388282"
       inkscape:transform-center-y="-11.300742"
       transform="matrix(3.1851045,0,0,0.931705,1327.6779,-75.975165)"
       inkscape:export-filename="C:\Users\Petra\Desktop\ACScrum\static\icons\mojeNaloge.png"
       inkscape:export-xdpi="90"
       inkscape:export-ydpi="90" />
    <path
       style="opacity:0;fill:#4d4d4d;fill-opacity:1;fill-rule:nonzero;stroke:#4d4d4d;stroke-width:44.98744583;stroke-linecap:square;stroke-linejoin:miter;stroke-miterlimit:4;stroke-opacity:1;stroke-dasharray:none"
       d="m 161.13395,205.54936 0,-130.521068 225.79302,0 225.79299,0 -1.74225,129.312538 -1.74225,129.31255 -26.16651,1.39582 c -22.67653,1.20965 -35.4216,-2.9645 -95.55761,-31.29605 l -69.39114,-32.69188 24.35913,-8.0592 c 55.96433,-18.51581 79.41631,-66.78309 52.44961,-107.94838 -36.08979,-55.091924 -143.92076,-62.890241 -194.3275,-14.05372 -17.56429,17.01714 -26.46726,49.90848 -19.25615,71.14029 5.68388,16.73522 34.20402,40.53974 60.52693,50.51922 l 22.15553,8.39955 -74.98344,32.5057 c -59.1223,25.62982 -80.58122,32.5057 -101.44689,32.5057 l -26.46347,0 0,-130.52107 z"
       id="path3870"
       inkscape:connector-curvature="0" />
    <path
       style="opacity:0;fill:#4d4d4d;fill-opacity:1;fill-rule:nonzero;stroke:#4d4d4d;stroke-width:44.98744583;stroke-linecap:square;stroke-linejoin:miter;stroke-miterlimit:4;stroke-opacity:1;stroke-dasharray:none"
       d="m 161.13395,205.54936 0,-130.521068 225.79302,0 225.79299,0 -1.74225,129.312538 -1.74225,129.31255 -26.16651,1.39582 c -22.67653,1.20965 -35.4216,-2.9645 -95.55761,-31.29605 l -69.39114,-32.69188 24.35913,-8.0592 c 55.96433,-18.51581 79.41631,-66.78309 52.44961,-107.94838 -36.08979,-55.091924 -143.92076,-62.890241 -194.3275,-14.05372 -17.56429,17.01714 -26.46726,49.90848 -19.25615,71.14029 5.68388,16.73522 34.20402,40.53974 60.52693,50.51922 l 22.15553,8.39955 -74.98344,32.5057 c -59.1223,25.62982 -80.58122,32.5057 -101.44689,32.5057 l -26.46347,0 0,-130.52107 z"
       id="path3872"
       inkscape:connector-curvature="0" />
    <path
       style="opacity:0;fill:#4d4d4d;fill-opacity:1;fill-rule:nonzero;stroke:#4d4d4d;stroke-width:44.98744583;stroke-linecap:square;stroke-linejoin:miter;stroke-miterlimit:4;stroke-opacity:1;stroke-dasharray:none"
       d="m 161.13395,205.54936 0,-130.521068 225.79302,0 225.79299,0 -1.74225,129.312538 -1.74225,129.31255 -26.16651,1.39582 c -22.67653,1.20965 -35.4216,-2.9645 -95.55761,-31.29605 l -69.39114,-32.69188 24.35913,-8.0592 c 55.96433,-18.51581 79.41631,-66.78309 52.44961,-107.94838 -36.08979,-55.091924 -143.92076,-62.890241 -194.3275,-14.05372 -17.56429,17.01714 -26.46726,49.90848 -19.25615,71.14029 5.68388,16.73522 34.20402,40.53974 60.52693,50.51922 l 22.15553,8.39955 -74.98344,32.5057 c -59.1223,25.62982 -80.58122,32.5057 -101.44689,32.5057 l -26.46347,0 0,-130.52107 z"
       id="path3874"
       inkscape:connector-curvature="0" />
    <path
       style="opacity:0;fill:#4d4d4d;fill-opacity:1;fill-rule:nonzero;stroke:#4d4d4d;stroke-width:44.98744583;stroke-linecap:square;stroke-linejoin:miter;stroke-miterlimit:4;stroke-opacity:1;stroke-dasharray:none"
       d="m 161.13395,205.54936 0,-130.521068 225.79302,0 225.79299,0 -1.74225,129.312538 -1.74225,129.31255 -26.16651,1.39582 c -22.67653,1.20965 -35.4216,-2.9645 -95.55761,-31.29605 l -69.39114,-32.69188 24.35913,-8.0592 c 55.96433,-18.51581 79.41631,-66.78309 52.44961,-107.94838 -36.08979,-55.091924 -143.92076,-62.890241 -194.3275,-14.05372 -17.56429,17.01714 -26.46726,49.90848 -19.25615,71.14029 5.68388,16.73522 34.20402,40.53974 60.52693,50.51922 l 22.15553,8.39955 -74.98344,32.5057 c -59.1223,25.62982 -80.58122,32.5057 -101.44689,32.5057 l -26.46347,0 0,-130.52107 z"
       id="path3876"
       inkscape:connector-curvature="0" />
  </g>
</svg>
