<?xml version="1.0" encoding="UTF-8" standalone="no"?>
<!-- Created with Inkscape (http://www.inkscape.org/) -->

<svg
   xmlns:dc="http://purl.org/dc/elements/1.1/"
   xmlns:cc="http://creativecommons.org/ns#"
   xmlns:rdf="http://www.w3.org/1999/02/22-rdf-syntax-ns#"
   xmlns:svg="http://www.w3.org/2000/svg"
   xmlns="http://www.w3.org/2000/svg"
   xmlns:sodipodi="http://sodipodi.sourceforge.net/DTD/sodipodi-0.dtd"
   xmlns:inkscape="http://www.inkscape.org/namespaces/inkscape"
   width="744.09448819"
   height="1052.3622047"
   id="svg2"
   version="1.1"
   inkscape:version="0.48.3.1 r9886"
   sodipodi:docname="wall.svg">
  <defs
     id="defs4" />
  <sodipodi:namedview
     id="base"
     pagecolor="#ffffff"
     bordercolor="#666666"
     borderopacity="1.0"
     inkscape:pageopacity="0.0"
     inkscape:pageshadow="2"
     inkscape:zoom="0.49497475"
     inkscape:cx="19.093208"
     inkscape:cy="414.35509"
     inkscape:document-units="px"
     inkscape:current-layer="layer1"
     showgrid="false"
     inkscape:window-width="1600"
     inkscape:window-height="838"
     inkscape:window-x="-8"
     inkscape:window-y="-8"
     inkscape:window-maximized="1" />
  <metadata
     id="metadata7">
    <rdf:RDF>
      <cc:Work
         rdf:about="">
        <dc:format>image/svg+xml</dc:format>
        <dc:type
           rdf:resource="http://purl.org/dc/dcmitype/StillImage" />
        <dc:title />
      </cc:Work>
    </rdf:RDF>
  </metadata>
  <g
     inkscape:label="Layer 1"
     inkscape:groupmode="layer"
     id="layer1">
    <rect
       style="fill:#ffffff;fill-opacity:1;fill-rule:nonzero;stroke:#4d4d4d;stroke-width:15.91279697000000000;stroke-linecap:square;stroke-linejoin:miter;stroke-miterlimit:4;stroke-opacity:1;stroke-dasharray:none"
       id="rect2985-5"
       width="725.95319"
       height="725.95319"
       x="10.779854"
       y="10.563084"
       ry="49.124214"
       inkscape:export-xdpi="90"
       inkscape:export-ydpi="90" />
    <path
       style="fill:#4d4d4d;fill-opacity:1;fill-rule:nonzero;stroke:#ffffff;stroke-width:6.23644972;stroke-linecap:square;stroke-linejoin:miter;stroke-miterlimit:4;stroke-opacity:1;stroke-dasharray:none"
       d="m 313.51574,568.053 c -1.57371,0 -2.83175,1.96085 -2.83175,4.37597 l 0,132.00298 c 0,2.4152 1.25804,4.3459 2.83175,4.3459 l 130.9677,0 c 1.57372,0 2.83175,-1.9307 2.83175,-4.3459 l 0,-132.00298 c 0,-2.41512 -1.25803,-4.37597 -2.83175,-4.37597 l -130.9677,0 z"
       id="rect2985-1"
       inkscape:connector-curvature="0"
       inkscape:export-filename="C:\Users\Petra\Desktop\ACScrum\static\icons\rect2985.png"
       inkscape:export-xdpi="90"
       inkscape:export-ydpi="90" />
    <path
       style="fill:#4d4d4d;fill-opacity:1;fill-rule:nonzero;stroke:#ffffff;stroke-width:8.24098206;stroke-linecap:square;stroke-linejoin:miter;stroke-miterlimit:4;stroke-opacity:1;stroke-dasharray:none"
       d="m 465.52035,569.1678 c -2.75954,0 -4.96544,1.95263 -4.96544,4.35764 l 0,131.44964 c 0,2.40495 2.2059,4.32747 4.96544,4.32747 l 229.65295,0 c 2.75954,0 4.96549,-1.92252 4.96549,-4.32747 l 0,-131.44964 c 0,-2.40501 -2.20595,-4.35764 -4.96549,-4.35764 l -229.65295,0 z"
       id="rect2985-7"
       inkscape:connector-curvature="0"
       inkscape:export-filename="C:\Users\Petra\Desktop\ACScrum\static\icons\rect2985.png"
       inkscape:export-xdpi="90"
       inkscape:export-ydpi="90" />
    <path
       style="fill:#4d4d4d;fill-opacity:1;fill-rule:nonzero;stroke:#ffffff;stroke-width:8.18446922;stroke-linecap:square;stroke-linejoin:miter;stroke-miterlimit:4;stroke-opacity:1;stroke-dasharray:none"
       d="m 203.51793,434.40963 c -3.0185,0 -5.43145,1.76067 -5.43145,3.92929 l 0,118.52948 c 0,2.1686 2.41295,3.9022 5.43145,3.9022 l 251.20478,0 c 3.01851,0 5.43143,-1.7336 5.43143,-3.9022 l 0,-118.52948 c 0,-2.16862 -2.41292,-3.92929 -5.43143,-3.92929 l -251.20478,0 z"
       id="rect2985-7-4"
       inkscape:connector-curvature="0"
       inkscape:export-filename="C:\Users\Petra\Desktop\ACScrum\static\icons\rect2985.png"
       inkscape:export-xdpi="90"
       inkscape:export-ydpi="90" />
    <path
       style="fill:#4d4d4d;fill-opacity:1;fill-rule:nonzero;stroke:#ffffff;stroke-width:7.62909079;stroke-linecap:square;stroke-linejoin:miter;stroke-miterlimit:4;stroke-opacity:1;stroke-dasharray:none"
       d="m 469.96541,437.58076 c -2.69537,0 -4.85003,1.71324 -4.85003,3.82342 l 0,115.33514 c 0,2.1102 2.15466,3.79704 4.85003,3.79704 l 224.31442,0 c 2.69534,0 4.85,-1.68684 4.85,-3.79704 l 0,-115.33514 c 0,-2.11018 -2.15466,-3.82342 -4.85,-3.82342 l -224.31442,0 z"
       id="rect2985-7-0"
       inkscape:connector-curvature="0"
       inkscape:export-filename="C:\Users\Petra\Desktop\ACScrum\static\icons\rect2985.png"
       inkscape:export-xdpi="90"
       inkscape:export-ydpi="90" />
    <path
       style="fill:#4d4d4d;fill-opacity:1;fill-rule:nonzero;stroke:#ffffff;stroke-width:6.14585924;stroke-linecap:square;stroke-linejoin:miter;stroke-miterlimit:4;stroke-opacity:1;stroke-dasharray:none"
       d="m 41.465031,434.34149 c -1.70022,0 -3.05937,1.76256 -3.05937,3.93352 l 0,118.6573 c 0,2.17097 1.35915,3.90643 3.05937,3.90643 l 141.495919,0 c 1.70024,0 3.05938,-1.73546 3.05938,-3.90643 l 0,-118.6573 c 0,-2.17096 -1.35914,-3.93352 -3.05938,-3.93352 l -141.495919,0 z"
       id="rect2985-7-9"
       inkscape:connector-curvature="0"
       inkscape:transform-center-x="-122.22472"
       inkscape:transform-center-y="-108.02801"
       inkscape:export-filename="C:\Users\Petra\Desktop\ACScrum\static\icons\rect2985.png"
       inkscape:export-xdpi="90"
       inkscape:export-ydpi="90" />
    <path
       style="fill:#4d4d4d;fill-opacity:1;fill-rule:nonzero;stroke:#ffffff;stroke-width:8.57486534;stroke-linecap:square;stroke-linejoin:miter;stroke-miterlimit:4;stroke-opacity:1;stroke-dasharray:none"
       d="m 356.96467,288.48056 c -3.05103,0 -5.48995,1.91206 -5.48995,4.26714 l 0,128.71987 c 0,2.3551 2.43892,4.23769 5.48995,4.23769 l 253.91133,0 c 3.051,0 5.4899,-1.88259 5.4899,-4.23769 l 0,-128.71987 c 0,-2.35508 -2.4389,-4.26714 -5.4899,-4.26714 l -253.91133,0 z"
       id="rect2985-7-48"
       inkscape:connector-curvature="0"
       inkscape:export-filename="C:\Users\Petra\Desktop\ACScrum\static\icons\rect2985.png"
       inkscape:export-xdpi="90"
       inkscape:export-ydpi="90" />
    <path
       style="fill:#4d4d4d;fill-opacity:1;fill-rule:nonzero;stroke:#ffffff;stroke-width:6.26026344;stroke-linecap:square;stroke-linejoin:miter;stroke-miterlimit:4;stroke-opacity:1;stroke-dasharray:none"
       d="m 113.05061,289.28408 c -1.62622,0 -2.92618,1.91208 -2.92618,4.26713 l 0,128.71989 c 0,2.35509 1.29996,4.23771 2.92618,4.23771 l 135.33577,0 c 1.62619,0 2.92616,-1.88262 2.92616,-4.23771 l 0,-128.71989 c 0,-2.35505 -1.29997,-4.26713 -2.92616,-4.26713 l -135.33577,0 z"
       id="rect2985-7-8"
       inkscape:connector-curvature="0"
       inkscape:export-filename="C:\Users\Petra\Desktop\ACScrum\static\icons\rect2985.png"
       inkscape:export-xdpi="90"
       inkscape:export-ydpi="90" />
    <path
       style="fill:#4d4d4d;fill-opacity:1;fill-rule:nonzero;stroke:#ffffff;stroke-width:8.49714184;stroke-linecap:square;stroke-linejoin:miter;stroke-miterlimit:4;stroke-opacity:1;stroke-dasharray:none"
       d="m 40.062636,571.24088 c -3.0185,0 -5.43145,1.89777 -5.43145,4.23525 l 0,127.75886 c 0,2.33746 2.41295,4.20605 5.43145,4.20605 l 251.204774,0 c 3.01851,0 5.43143,-1.86859 5.43143,-4.20605 l 0,-127.75886 c 0,-2.33748 -2.41292,-4.23525 -5.43143,-4.23525 l -251.204774,0 z"
       id="rect2985-7-4-2"
       inkscape:connector-curvature="0"
       inkscape:export-filename="C:\Users\Petra\Desktop\ACScrum\static\icons\rect2985.png"
       inkscape:export-xdpi="90"
       inkscape:export-ydpi="90" />
  </g>
</svg>
